<svg width="75" height="97" viewBox="0 0 75 97" fill="none" xmlns="http://www.w3.org/2000/svg">
<path d="M27.2736 9.5098C27.2736 8.47958 26.9362 7.58803 26.2615 6.83517C25.5868 6.08231 24.7878 5.70588 23.8645 5.70588C22.9412 5.70588 22.1423 6.08231 21.4675 6.83517C20.7928 7.58803 20.4555 8.47958 20.4555 9.5098C20.4555 10.54 20.7928 11.4316 21.4675 12.1844C22.1423 12.9373 22.9412 13.3137 23.8645 13.3137C24.7878 13.3137 25.5868 12.9373 26.2615 12.1844C26.9362 11.4316 27.2736 10.54 27.2736 9.5098ZM75 7.60784V26.6275C75 27.2614 74.7869 27.7567 74.3608 28.1134C74.0767 28.3907 73.7216 28.5294 73.2955 28.5294C73.1534 28.5294 73.0292 28.5096 72.9226 28.47L49.0594 22.7641C48.6688 22.6848 48.3492 22.4669 48.1006 22.1103C47.852 21.7537 47.7277 21.3574 47.7277 20.9216H34.0916V26.9841C38.0333 27.8954 41.2914 30.0946 43.866 33.5815C46.4405 37.0684 47.7277 41.0903 47.7277 45.6471V93.1961C47.7277 94.2263 47.3904 95.1179 46.7157 95.8707C46.041 96.6236 45.242 97 44.3187 97H17.0465C16.1232 97 15.3242 96.6236 14.6495 95.8707C13.9748 95.1179 13.6374 94.2263 13.6374 93.1961V45.6471C13.6374 41.4469 14.7471 37.6727 16.9666 34.3244C19.186 30.9762 22.0535 28.7077 25.569 27.519V20.9216H23.8645C21.7694 20.9216 19.7275 21.3872 17.7389 22.3183C15.7503 23.2495 14.1257 24.2995 12.8651 25.4684C11.6044 26.6374 10.4326 27.9549 9.3495 29.421C8.26643 30.8871 7.54733 31.947 7.19223 32.6008C6.83712 33.2546 6.58854 33.74 6.4465 34.057C5.84282 35.4438 4.83076 36.1373 3.41033 36.1373C2.84216 36.1373 2.32725 35.9986 1.86561 35.7212C1.04887 35.2457 0.489572 34.5127 0.187731 33.5221C-0.114111 32.5315 -0.051967 31.5607 0.374162 30.6097C0.551716 30.2134 0.809169 29.6983 1.14652 29.0643C1.48387 28.4304 2.1497 27.3704 3.144 25.8845C4.1383 24.3986 5.2125 23.0117 6.3666 21.724C7.5207 20.4362 9.02991 19.1088 10.8942 17.7417C12.7585 16.3747 14.685 15.3346 16.6736 14.6213C15.7858 12.9571 15.3419 11.2533 15.3419 9.5098C15.3419 6.89461 16.1764 4.65584 17.8454 2.7935C19.5145 0.931168 21.5208 0 23.8645 0C26.2082 0 28.2146 0.931168 29.8836 2.7935C31.5526 4.65584 32.3871 6.89461 32.3871 9.5098C32.3871 10.8174 32.1385 12.0854 31.6414 13.3137H47.7277C47.7277 12.8779 47.852 12.4816 48.1006 12.125C48.3492 11.7684 48.6688 11.5504 49.0594 11.4712L72.9226 5.76532C73.0292 5.72569 73.1534 5.70588 73.2955 5.70588C73.7216 5.70588 74.0767 5.84457 74.3608 6.12194C74.7869 6.47855 75 6.97386 75 7.60784Z" fill="#F7F4F4"/>
</svg>
