<svg width="57" height="55" viewBox="0 0 57 55" fill="none" xmlns="http://www.w3.org/2000/svg">
<path d="M20.7279 5.39216C20.7279 4.80801 20.4715 4.30249 19.9587 3.87561C19.446 3.44873 18.8387 3.23529 18.137 3.23529C17.4353 3.23529 16.8281 3.44873 16.3153 3.87561C15.8026 4.30249 15.5462 4.80801 15.5462 5.39216C15.5462 5.97631 15.8026 6.48182 16.3153 6.9087C16.8281 7.33558 17.4353 7.54902 18.137 7.54902C18.8387 7.54902 19.446 7.33558 19.9587 6.9087C20.4715 6.48182 20.7279 5.97631 20.7279 5.39216ZM57 4.31373V15.098C57 15.4575 56.8381 15.7384 56.5142 15.9406C56.2983 16.0978 56.0284 16.1765 55.7046 16.1765C55.5966 16.1765 55.5022 16.1652 55.4212 16.1428L37.2851 12.9075C36.9883 12.8625 36.7454 12.739 36.5565 12.5368C36.3675 12.3346 36.2731 12.1099 36.2731 11.8627H25.9096V15.3002C28.9053 15.817 31.3815 17.0639 33.3381 19.0411C35.2948 21.0182 36.2731 23.2986 36.2731 25.8824V52.8431C36.2731 53.4273 36.0167 53.9328 35.5039 54.3597C34.9911 54.7866 34.3839 55 33.6822 55H12.9553C12.2536 55 11.6464 54.7866 11.1336 54.3597C10.6208 53.9328 10.3644 53.4273 10.3644 52.8431V25.8824C10.3644 23.5008 11.2078 21.3608 12.8946 19.4623C14.5813 17.5638 16.7606 16.2776 19.4325 15.6036V11.8627H18.137C16.5447 11.8627 14.9929 12.1267 13.4816 12.6547C11.9702 13.1827 10.7355 13.7781 9.77745 14.4409C8.81937 15.1037 7.92876 15.8507 7.10562 16.682C6.28248 17.5133 5.73597 18.1143 5.46609 18.485C5.19621 18.8557 5.00729 19.1309 4.89934 19.3107C4.44054 20.097 3.67138 20.4902 2.59185 20.4902C2.16004 20.4902 1.76871 20.4116 1.41787 20.2543C0.797138 19.9847 0.372075 19.569 0.142675 19.0074C-0.0867242 18.4457 -0.0394949 17.8952 0.284363 17.356C0.419304 17.1313 0.614968 16.8393 0.871356 16.4798C1.12774 16.1203 1.63377 15.5193 2.38944 14.6768C3.14511 13.8343 3.9615 13.0479 4.83862 12.3177C5.71573 11.5875 6.86273 10.8349 8.27961 10.0597C9.69649 9.28462 11.1606 8.69485 12.6719 8.29044C11.9972 7.34681 11.6599 6.38072 11.6599 5.39216C11.6599 3.90931 12.2941 2.63991 13.5625 1.58395C14.831 0.527982 16.3558 0 18.137 0C19.9183 0 21.4431 0.527982 22.7115 1.58395C23.98 2.63991 24.6142 3.90931 24.6142 5.39216C24.6142 6.13358 24.4253 6.85253 24.0474 7.54902H36.2731C36.2731 7.30188 36.3675 7.07721 36.5565 6.875C36.7454 6.67279 36.9883 6.54922 37.2851 6.50429L55.4212 3.269C55.5022 3.24653 55.5966 3.23529 55.7046 3.23529C56.0284 3.23529 56.2983 3.31393 56.5142 3.4712C56.8381 3.67341 57 3.95425 57 4.31373Z" fill="black" fill-opacity="0.85"/>
</svg>
