<svg width="57" height="62" viewBox="0 0 57 62" fill="none" xmlns="http://www.w3.org/2000/svg">
<path d="M50.8929 46.5C50.3415 46.5 49.8644 46.3083 49.4615 45.9248C49.0586 45.5413 48.8571 45.0872 48.8571 44.5625V42.625H44.7857V54.25C45.9308 54.25 46.8956 54.6234 47.6802 55.3701C48.4648 56.1169 48.8571 57.0251 48.8571 58.0947C48.8571 59.1644 48.4648 60.0827 47.6802 60.8496C46.8956 61.6165 45.9308 62 44.7857 62H12.2143C11.1116 62 10.1574 61.6165 9.35156 60.8496C8.54576 60.0827 8.14286 59.1644 8.14286 58.0947C8.14286 57.0251 8.54576 56.1169 9.35156 55.3701C10.1574 54.6234 11.1116 54.25 12.2143 54.25V42.625H8.14286V44.5625C8.14286 45.0872 7.94141 45.5413 7.5385 45.9248C7.1356 46.3083 6.65848 46.5 6.10714 46.5C4.41071 46.5 2.96875 45.7432 1.78125 44.2295C0.59375 42.7158 0 40.8893 0 38.75C0 36.6107 0.59375 34.7842 1.78125 33.2705C2.96875 31.7568 4.41071 31 6.10714 31C6.65848 31 7.1356 31.1917 7.5385 31.5752C7.94141 31.9587 8.14286 32.4128 8.14286 32.9375V34.875H12.2143V27.125C11.1116 27.125 10.1574 26.7415 9.35156 25.9746C8.54576 25.2077 8.14286 24.2894 8.14286 23.2197C8.14286 22.1501 8.54576 21.2419 9.35156 20.4951C10.1574 19.7484 11.1116 19.375 12.2143 19.375C12.2143 15.7826 13.3594 12.6038 15.6496 9.83887C17.9397 7.07389 20.8661 5.2474 24.4286 4.35938V3.875C24.4286 2.78516 24.8315 1.86686 25.6373 1.12012C26.4431 0.373372 27.4079 0 28.5318 0C29.6557 0 30.6099 0.373372 31.3945 1.12012C32.1791 1.86686 32.5714 2.78516 32.5714 3.875V4.35938C36.1339 5.2474 39.0603 7.08398 41.3504 9.86914C43.6406 12.6543 44.7857 15.8229 44.7857 19.375C45.9308 19.375 46.8956 19.7484 47.6802 20.4951C48.4648 21.2419 48.8571 22.1501 48.8571 23.2197C48.8571 24.2894 48.4648 25.2077 47.6802 25.9746C46.8956 26.7415 45.9308 27.125 44.7857 27.125V34.875H48.8571V32.9375C48.8571 32.4128 49.0586 31.9587 49.4615 31.5752C49.8644 31.1917 50.3415 31 50.8929 31C52.5893 31 54.0313 31.7568 55.2188 33.2705C56.4063 34.7842 57 36.6107 57 38.75C57 40.8893 56.4063 42.7158 55.2188 44.2295C54.0313 45.7432 52.5893 46.5 50.8929 46.5Z" fill="black" fill-opacity="0.85"/>
</svg>
