<svg width="57" height="54" viewBox="0 0 57 54" fill="none" xmlns="http://www.w3.org/2000/svg">
<path d="M6.5629 43.9732L11.3028 39.2617L14.9488 42.8859L10.209 47.5973L6.5629 43.9732ZM25.887 54V46.3893H31.113V54H25.887ZM7.77825 23.1946V28.3893H0V23.1946H7.77825ZM36.339 12.443C38.6887 13.8121 40.5725 15.6644 41.9904 18C43.4083 20.3356 44.1173 22.9128 44.1173 25.7315C44.1173 30 42.5981 33.6443 39.5597 36.6644C36.5213 39.6846 32.855 41.1946 28.5608 41.1946C24.2665 41.1946 20.6002 39.6846 17.5618 36.6644C14.5235 33.6443 13.0043 30 13.0043 25.7315C13.0043 22.9128 13.693 20.3356 15.0704 18C16.4478 15.6644 18.3518 13.8121 20.7825 12.443V0H36.339V12.443ZM49.2217 23.1946H57V28.3893H49.2217V23.1946ZM42.0512 42.8859L45.6972 39.3825L50.4371 43.9732L46.791 47.5973L42.0512 42.8859Z" fill="black" fill-opacity="0.85"/>
</svg>
