<svg width="32" height="28" viewBox="0 0 32 28" fill="none" xmlns="http://www.w3.org/2000/svg">
<path fill-rule="evenodd" clip-rule="evenodd" d="M30 4H2C1.46957 4 0.96086 3.78929 0.585787 3.41421C0.210714 3.03914 0 2.53043 0 2C0 1.46957 0.210714 0.96086 0.585787 0.585787C0.96086 0.210714 1.46957 0 2 0H30C30.5304 0 31.0391 0.210714 31.4142 0.585787C31.7893 0.96086 32 1.46957 32 2C32 2.53043 31.7893 3.03914 31.4142 3.41421C31.0391 3.78929 30.5304 4 30 4ZM30 12H2C1.46957 12 0.96086 11.7893 0.585787 11.4142C0.210714 11.0391 0 10.5304 0 10C0 9.46957 0.210714 8.96086 0.585787 8.58579C0.96086 8.21071 1.46957 8 2 8H30C30.5304 8 31.0391 8.21071 31.4142 8.58579C31.7893 8.96086 32 9.46957 32 10C32 10.5304 31.7893 11.0391 31.4142 11.4142C31.0391 11.7893 30.5304 12 30 12ZM30 20H2C1.46957 20 0.96086 19.7893 0.585787 19.4142C0.210714 19.0391 0 18.5304 0 18C0 17.4696 0.210714 16.9609 0.585787 16.5858C0.96086 16.2107 1.46957 16 2 16H30C30.5304 16 31.0391 16.2107 31.4142 16.5858C31.7893 16.9609 32 17.4696 32 18C32 18.5304 31.7893 19.0391 31.4142 19.4142C31.0391 19.7893 30.5304 20 30 20ZM30 28H2C1.46957 28 0.96086 27.7893 0.585787 27.4142C0.210714 27.0391 0 26.5304 0 26C0 25.4696 0.210714 24.9609 0.585787 24.5858C0.96086 24.2107 1.46957 24 2 24H30C30.5304 24 31.0391 24.2107 31.4142 24.5858C31.7893 24.9609 32 25.4696 32 26C32 26.5304 31.7893 27.0391 31.4142 27.4142C31.0391 27.7893 30.5304 28 30 28Z" fill="white"/>
</svg>
