<svg width="57" height="53" viewBox="0 0 57 53" fill="none" xmlns="http://www.w3.org/2000/svg">
<path d="M49.875 46.375H46.3125V49.6875C46.3125 50.6191 45.9692 51.4041 45.2827 52.0425C44.5962 52.6808 43.752 53 42.75 53H35.625C34.6602 53 33.8252 52.6808 33.1201 52.0425C32.415 51.4041 32.0625 50.6191 32.0625 49.6875V46.375H7.125C5.1582 46.375 3.479 45.728 2.0874 44.4341C0.695801 43.1401 0 41.5788 0 39.75V13.25C0 12.3529 0.352539 11.5765 1.05762 10.9209C1.7627 10.2653 2.59766 9.9375 3.5625 9.9375H30.2812L32.8418 5.58984C33.1758 5.03776 33.7324 4.52018 34.5117 4.03711C35.291 3.55404 36.0703 3.3125 36.8496 3.3125H50.209C51.0996 3.3125 51.9346 3.52816 52.7139 3.95947C53.4932 4.39079 54.0127 4.93424 54.2725 5.58984C56.0908 7.90169 57 9.35091 57 9.9375V39.75C57 41.5788 56.3042 43.1401 54.9126 44.4341C53.521 45.728 51.8418 46.375 49.875 46.375ZM49.875 33.125H42.75V26.5C42.75 25.6029 42.3975 24.8265 41.6924 24.1709C40.9873 23.5153 40.1431 23.1875 39.1597 23.1875C38.1763 23.1875 37.3413 23.5153 36.6548 24.1709C35.9683 24.8265 35.625 25.6029 35.625 26.5V33.125H28.5C27.498 33.125 26.6538 33.4528 25.9673 34.1084C25.2808 34.764 24.9375 35.549 24.9375 36.4634C24.9375 37.3778 25.2808 38.1541 25.9673 38.7925C26.6538 39.4308 27.498 39.75 28.5 39.75H35.625V46.375C35.625 47.3066 35.9683 48.0916 36.6548 48.73C37.3413 49.3683 38.1763 49.6875 39.1597 49.6875C40.1431 49.6875 40.9873 49.3683 41.6924 48.73C42.3975 48.0916 42.75 47.3066 42.75 46.375V39.75H49.875C50.8398 39.75 51.6748 39.4308 52.3799 38.7925C53.085 38.1541 53.4375 37.3778 53.4375 36.4634C53.4375 35.549 53.085 34.764 52.3799 34.1084C51.6748 33.4528 50.8398 33.125 49.875 33.125ZM2.56055 2.27734C2.82031 1.62174 3.33984 1.07829 4.11914 0.646973C4.89844 0.215658 5.71484 0 6.56836 0H19.9277C20.8184 0 21.6533 0.215658 22.4326 0.646973C23.2119 1.07829 23.75 1.62174 24.0469 2.27734L26.7188 6.625H0L2.56055 2.27734Z" fill="black" fill-opacity="0.85"/>
</svg>
