<svg width="57" height="53" viewBox="0 0 57 53" fill="none" xmlns="http://www.w3.org/2000/svg">
<path d="M56.0656 24.6338C56.6885 25.1315 57 25.7535 57 26.5C57 27.2465 56.6885 27.8685 56.0656 28.3662L30.4356 52.2535C29.9016 52.7512 29.2342 53 28.4333 53C27.6323 53 26.9649 52.7512 26.4309 52.2535L0.800937 28.3662C0.266979 27.8685 0 27.2465 0 26.5C0 25.7535 0.266979 25.1315 0.800937 24.6338L26.4309 0.746479C26.9649 0.248826 27.6323 0 28.4333 0C29.2342 0 29.9016 0.248826 30.4356 0.746479L56.0656 24.6338ZM34.1733 33.0939L44.185 23.8873L34.1733 14.5563V21.1502H19.8899C19.089 21.1502 18.4215 21.4198 17.8876 21.9589C17.3536 22.498 17.0867 23.1408 17.0867 23.8873V34.4624H22.8267V26.5H34.1733V33.0939Z" fill="black" fill-opacity="0.85"/>
</svg>
